<svg width="294" height="60" viewBox="0 0 294 60" fill="none" xmlns="http://www.w3.org/2000/svg">
<path d="M130.08 56.092C125.615 56.092 121.781 55.3028 118.579 53.7242C115.377 52.1457 112.761 50.0936 110.731 47.5679C108.747 45.0422 107.281 42.291 106.334 39.3143C105.387 36.3377 104.913 33.4737 104.913 30.7225V29.2342C104.913 26.1673 105.387 23.1455 106.334 20.1688C107.326 17.1921 108.837 14.4861 110.866 12.0506C112.896 9.61512 115.467 7.67576 118.579 6.23252C121.736 4.74417 125.457 4 129.741 4C134.206 4 138.085 4.81182 141.378 6.43547C144.715 8.01402 147.376 10.2691 149.36 13.2007C151.345 16.0872 152.54 19.4698 152.946 23.3485H143.272C142.911 21.0934 142.099 19.1991 140.836 17.6657C139.619 16.0872 138.063 14.9145 136.168 14.1478C134.274 13.336 132.132 12.9301 129.741 12.9301C127.306 12.9301 125.141 13.3585 123.247 14.2155C121.353 15.0273 119.774 16.1999 118.511 17.7334C117.248 19.2668 116.279 21.0709 115.602 23.1455C114.971 25.2202 114.655 27.5203 114.655 30.046C114.655 32.4815 114.971 34.7366 115.602 36.8112C116.279 38.8859 117.271 40.7125 118.579 42.291C119.887 43.8245 121.488 45.0197 123.382 45.8766C125.321 46.7335 127.554 47.162 130.08 47.162C133.778 47.162 136.89 46.2599 139.416 44.4559C141.986 42.6067 143.542 40.036 144.084 36.7436H153.758C153.307 40.2615 152.112 43.4862 150.172 46.4178C148.233 49.3494 145.572 51.6946 142.189 53.4536C138.807 55.2126 134.77 56.092 130.08 56.092Z" fill="#777"/>
<path d="M158.211 54.8066V5.42069H167.615V54.8066H158.211ZM153.611 12.4565V5.42069H167.615V12.4565H153.611Z" fill="#777"/>
<path d="M192.625 56.092C189.378 56.092 186.514 55.5734 184.033 54.536C181.553 53.4987 179.455 52.1006 177.742 50.3416C176.028 48.5376 174.72 46.508 173.818 44.2529C172.961 41.9979 172.532 39.6526 172.532 37.2171V35.7964C172.532 33.2708 172.983 30.8804 173.885 28.6253C174.832 26.3252 176.163 24.2956 177.877 22.5366C179.636 20.7326 181.756 19.3345 184.236 18.3422C186.717 17.3049 189.513 16.7862 192.625 16.7862C195.737 16.7862 198.533 17.3049 201.014 18.3422C203.494 19.3345 205.592 20.7326 207.305 22.5366C209.064 24.2956 210.395 26.3252 211.297 28.6253C212.199 30.8804 212.65 33.2708 212.65 35.7964V37.2171C212.65 39.6526 212.199 41.9979 211.297 44.2529C210.44 46.508 209.155 48.5376 207.441 50.3416C205.727 52.1006 203.63 53.4987 201.149 54.536C198.669 55.5734 195.827 56.092 192.625 56.092ZM192.625 48.0414C194.925 48.0414 196.864 47.5453 198.443 46.5531C200.022 45.5158 201.217 44.1402 202.029 42.4263C202.84 40.6674 203.246 38.6829 203.246 36.473C203.246 34.2179 202.818 32.2334 201.961 30.5196C201.149 28.7606 199.931 27.385 198.308 26.3928C196.729 25.3555 194.835 24.8368 192.625 24.8368C190.415 24.8368 188.498 25.3555 186.875 26.3928C185.296 27.385 184.078 28.7606 183.221 30.5196C182.364 32.2334 181.936 34.2179 181.936 36.473C181.936 38.6829 182.342 40.6674 183.154 42.4263C184.011 44.1402 185.228 45.5158 186.807 46.5531C188.385 47.5453 190.325 48.0414 192.625 48.0414Z" fill="#777"/>
<path d="M230.017 55.9567C225.777 55.9567 222.485 54.5586 220.14 51.7623C217.84 48.966 216.689 44.8167 216.689 39.3143V18.004H226.093V40.1262C226.093 42.3812 226.725 44.1853 227.987 45.5383C229.25 46.8463 230.964 47.5002 233.129 47.5002C235.294 47.5002 237.053 46.8012 238.406 45.403C239.804 44.0049 240.503 42.1106 240.503 39.7203V18.004H249.907V54.8066H242.465V39.179H243.209C243.209 42.8773 242.736 45.9668 241.788 48.4474C240.841 50.9279 239.421 52.7996 237.526 54.0625C235.632 55.3253 233.264 55.9567 230.423 55.9567H230.017Z" fill="#777"/>
<path d="M272.548 56.0244C269.977 56.0244 267.609 55.5508 265.444 54.6037C263.28 53.6566 261.408 52.3261 259.829 50.6122C258.251 48.8984 257.033 46.9139 256.176 44.6588C255.319 42.3587 254.891 39.8781 254.891 37.2171V35.7964C254.891 33.1806 255.297 30.7225 256.108 28.4224C256.965 26.1222 258.138 24.1152 259.626 22.4013C261.16 20.6875 262.986 19.357 265.106 18.4099C267.271 17.4176 269.661 16.9215 272.277 16.9215C275.164 16.9215 277.689 17.553 279.854 18.8158C282.064 20.0335 283.823 21.8827 285.131 24.3633C286.439 26.8438 287.161 29.9558 287.296 33.6992L284.522 30.4519V5.42069H293.926V54.8066H286.484V39.179H288.108C287.972 42.9224 287.206 46.057 285.808 48.5827C284.409 51.0632 282.56 52.9349 280.26 54.1978C278.005 55.4155 275.434 56.0244 272.548 56.0244ZM274.645 48.1091C276.494 48.1091 278.186 47.7032 279.719 46.8914C281.252 46.0344 282.47 44.8167 283.372 43.2382C284.319 41.6145 284.793 39.7202 284.793 37.5554V34.8493C284.793 32.6844 284.319 30.8804 283.372 29.4371C282.425 27.9488 281.185 26.8213 279.651 26.0546C278.118 25.2427 276.449 24.8368 274.645 24.8368C272.615 24.8368 270.811 25.3329 269.233 26.3252C267.699 27.2723 266.482 28.6253 265.58 30.3843C264.723 32.1432 264.294 34.1953 264.294 36.5406C264.294 38.8859 264.745 40.938 265.647 42.6969C266.549 44.4108 267.767 45.7413 269.301 46.6884C270.879 47.6355 272.661 48.1091 274.645 48.1091Z" fill="#777"/>
<path d="M69.4844 60C66.2354 60 64.2334 58.5 60.9629 56.7334C57.6924 54.9668 48.2334 47.854 48.2334 39C48.2334 32.9937 46.6851 28.1357 44.0483 24.2642C41.4312 20.4224 37.8857 17.7607 34.1973 15.8818C32.4199 14.9766 30.5703 14.2363 28.7285 13.6245C27.6548 13.2681 27.0317 12.1152 27.4976 11.0845C30.4502 4.54785 37.0259 0 44.6646 0C55.0625 0 63.4922 8.4292 63.4922 18.8276C63.4922 21.0522 63.1064 23.187 62.3979 25.168C65.3989 23.1455 69.0146 21.9653 72.9058 21.9653C83.3037 21.9653 91.7334 30.3945 91.7334 40.793C91.7334 53.311 80.7334 60 69.4844 60Z" fill="#777"/>
<path d="M0.733398 39.2241C0.733398 49.1484 7.27637 57.4175 15.9443 59.2446C17.2822 59.7334 18.7266 60 20.2334 60H49.4858C50.4668 60 50.894 58.688 50.145 58.0542C45.0327 53.7285 41.2334 47.6323 41.2334 39C41.2334 34.2568 40.0322 30.8022 38.2627 28.2051C36.4731 25.5781 33.9561 23.6147 31.02 22.1187C28.0566 20.6094 24.8394 19.6479 21.7671 18.9663C21.0435 18.875 20.3071 18.8276 19.561 18.8276C9.1626 18.8276 0.733398 27.9595 0.733398 39.2241Z" fill="#777"/>
</svg>
