<svg width="363" height="90" viewBox="0 0 363 90" fill="none" xmlns="http://www.w3.org/2000/svg">
<path d="M164.839 68.2678C161.68 68.2678 158.741 67.7279 156.022 66.6483C153.343 65.5286 150.984 63.9691 148.944 61.9697C146.945 59.9703 145.385 57.651 144.266 55.0118C143.146 52.3326 142.586 49.4535 142.586 46.3744C142.586 43.2954 143.146 40.4362 144.266 37.797C145.385 35.1179 146.945 32.7986 148.944 30.8392C150.944 28.8798 153.283 27.3602 155.962 26.2806C158.681 25.1609 161.62 24.6011 164.779 24.6011C168.138 24.6011 171.118 25.1409 173.717 26.2206C175.947 27.1332 177.935 28.3314 179.681 29.8154C180.208 30.2637 180.216 31.062 179.729 31.5537L175.223 36.1019C174.728 36.6016 173.921 36.5837 173.386 36.127C172.467 35.3426 171.418 34.6997 170.238 34.1981C168.678 33.5184 166.859 33.1785 164.779 33.1785C162.94 33.1785 161.241 33.4984 159.681 34.1382C158.161 34.738 156.842 35.6177 155.722 36.7774C154.643 37.937 153.783 39.3366 153.143 40.9761C152.543 42.6156 152.243 44.415 152.243 46.3744C152.243 48.3738 152.543 50.1933 153.143 51.8328C153.783 53.4723 154.643 54.8718 155.722 56.0315C156.842 57.1911 158.161 58.0909 159.681 58.7307C161.241 59.3705 162.94 59.6904 164.779 59.6904C166.939 59.6904 168.818 59.3505 170.418 58.6707C171.613 58.1626 172.686 57.5093 173.636 56.7108C174.166 56.2653 174.958 56.2529 175.447 56.7425L180.002 61.2971C180.5 61.7949 180.485 62.6098 179.942 63.0572C178.141 64.5394 176.126 65.7364 173.897 66.6483C171.297 67.7279 168.278 68.2678 164.839 68.2678Z" fill="#777"/>
<path d="M131.411 67.608C130.727 67.608 130.172 67.0533 130.172 66.3691V26.4998C130.172 25.8155 130.727 25.2609 131.411 25.2609H138.35C139.034 25.2609 139.589 25.8155 139.589 26.4998V66.3691C139.589 67.0533 139.034 67.608 138.35 67.608H131.411Z" fill="#777"/>
<path d="M183.101 66.3691C183.101 67.0533 183.656 67.608 184.34 67.608H191.279C191.323 67.608 191.366 67.6057 191.409 67.6013C191.451 67.6057 191.494 67.608 191.538 67.608H212.273C212.957 67.608 213.512 67.0533 213.512 66.3691V60.6893C213.512 60.0051 212.957 59.4504 212.273 59.4504H192.518V49.9134H210.174C210.858 49.9134 211.412 49.3587 211.412 48.6745V43.2946C211.412 42.6104 210.858 42.0557 210.174 42.0557H192.518V33.3584H211.973C212.657 33.3584 213.212 32.8037 213.212 32.1195V26.4998C213.212 25.8155 212.657 25.2609 211.973 25.2609H191.538C191.494 25.2609 191.451 25.2631 191.409 25.2675C191.366 25.2631 191.323 25.2609 191.279 25.2609H184.34C183.656 25.2609 183.101 25.8155 183.101 26.4998V66.3691Z" fill="#777"/>
<path fill-rule="evenodd" clip-rule="evenodd" d="M225.441 67.608C225.377 67.608 225.314 67.6031 225.252 67.5936C225.191 67.6031 225.127 67.608 225.063 67.608H218.244C217.559 67.608 217.005 67.0533 217.005 66.3691V26.4998C217.005 25.8155 217.559 25.2609 218.244 25.2609H225.063C225.127 25.2609 225.191 25.2658 225.252 25.2752C225.314 25.2658 225.377 25.2609 225.441 25.2609H235.179C237.898 25.2609 240.198 25.7607 242.077 26.7604C243.997 27.7601 245.456 29.0997 246.456 30.7792C247.455 32.4587 247.955 34.3181 247.955 36.3575C247.955 38.9567 247.116 41.156 245.436 42.9555C244.713 43.7307 243.841 44.402 242.82 44.9695C244.251 45.6705 245.463 46.5587 246.456 47.6341C248.415 49.7134 249.395 52.2726 249.395 55.3117C249.395 57.631 248.815 59.7304 247.655 61.6098C246.536 63.4492 244.896 64.9088 242.737 65.9885C240.618 67.0681 238.058 67.608 235.059 67.608H225.441ZM226.302 60.2902H234.16C235.999 60.2902 237.439 59.7504 238.478 58.6707C239.518 57.591 240.038 56.2714 240.038 54.7119C240.038 53.6322 239.798 52.6725 239.318 51.8328C238.838 50.993 238.158 50.3332 237.279 49.8534C236.439 49.3735 235.399 49.1336 234.16 49.1336H226.302V60.2902ZM233.38 41.9958H226.302V32.5786H233.38C234.939 32.5786 236.199 32.9785 237.159 33.7783C238.118 34.538 238.598 35.6977 238.598 37.2572C238.598 38.8567 238.118 40.0564 237.159 40.8561C236.199 41.6159 234.939 41.9958 233.38 41.9958Z" fill="#777"/>
<path d="M252.431 66.3691C252.431 67.0533 252.986 67.608 253.67 67.608H260.61C260.653 67.608 260.696 67.6057 260.739 67.6013C260.781 67.6057 260.825 67.608 260.868 67.608H281.603C282.288 67.608 282.842 67.0533 282.842 66.3691V60.6893C282.842 60.0051 282.288 59.4504 281.603 59.4504H261.849V49.9134H279.504C280.188 49.9134 280.743 49.3587 280.743 48.6745V43.2946C280.743 42.6104 280.188 42.0557 279.504 42.0557H261.849V33.3584H281.303C281.988 33.3584 282.542 32.8037 282.542 32.1195V26.4998C282.542 25.8155 281.988 25.2609 281.303 25.2609H260.868C260.825 25.2609 260.781 25.2631 260.739 25.2675C260.696 25.2631 260.653 25.2609 260.61 25.2609H253.67C252.986 25.2609 252.431 25.8155 252.431 26.4998V66.3691Z" fill="#777"/>
<path fill-rule="evenodd" clip-rule="evenodd" d="M295.752 66.3691V50.1533H296.989C296.998 50.385 297.073 50.6186 297.224 50.8267L308.997 67.0954C309.23 67.4173 309.603 67.608 310.001 67.608H318.019C319.045 67.608 319.627 66.4323 319.004 65.617L306.959 49.8484C308.4 49.592 309.723 49.1738 310.928 48.5938C313.087 47.5541 314.767 46.1145 315.966 44.2751C317.166 42.3956 317.766 40.2163 317.766 37.7371C317.766 35.2978 317.166 33.1385 315.966 31.259C314.767 29.3796 313.107 27.9201 310.988 26.8804C308.868 25.8007 306.409 25.2609 303.61 25.2609H294.772C294.728 25.2609 294.685 25.2631 294.643 25.2675C294.6 25.2631 294.557 25.2609 294.513 25.2609H287.574C286.89 25.2609 286.335 25.8155 286.335 26.4998V66.3691C286.335 67.0533 286.89 67.608 287.574 67.608H294.513C295.198 67.608 295.752 67.0533 295.752 66.3691ZM302.47 43.1954H295.752V32.5786H302.53C304.41 32.5786 305.849 33.0785 306.849 34.0782C307.849 35.0779 308.348 36.3375 308.348 37.857C308.348 39.4965 307.829 40.7961 306.789 41.7558C305.789 42.7155 304.35 43.1954 302.47 43.1954Z" fill="#777"/>
<path d="M332.746 66.5883C335.465 67.7079 338.364 68.2678 341.443 68.2678C345.642 68.2678 349.341 67.388 352.54 65.6286C355.779 63.8691 358.298 61.2699 360.097 57.8309C361.937 54.352 362.856 50.0733 362.856 44.9949V44.8542C362.856 44.1699 362.302 43.6153 361.617 43.6153H341.842C341.158 43.6153 340.603 44.1699 340.603 44.8542V50.3735C340.603 51.05 341.146 51.6015 341.822 51.6122L352.769 51.786C352.536 52.6672 352.219 53.4826 351.82 54.232C350.9 55.9915 349.56 57.3511 347.801 58.3108C346.081 59.2305 343.982 59.6904 341.503 59.6904C339.064 59.6904 336.904 59.1305 335.025 58.0109C333.145 56.8912 331.666 55.3317 330.586 53.3323C329.507 51.3329 328.967 49.0136 328.967 46.3744C328.967 43.7352 329.507 41.4359 330.586 39.4765C331.706 37.4771 333.245 35.9376 335.205 34.8579C337.164 33.7383 339.384 33.1785 341.863 33.1785C344.182 33.1785 346.261 33.6183 348.101 34.4981C349.545 35.1887 350.841 36.1504 351.989 37.3832C352.498 37.9296 353.367 37.9894 353.895 37.4613L358.512 32.8442C358.967 32.3889 359.001 31.6574 358.557 31.191C356.729 29.2717 354.503 27.7348 351.88 26.5805C348.921 25.2609 345.622 24.6011 341.983 24.6011C338.824 24.6011 335.865 25.1609 333.105 26.2806C330.346 27.3602 327.927 28.8998 325.848 30.8992C323.808 32.8586 322.209 35.1579 321.049 37.797C319.889 40.4362 319.31 43.2954 319.31 46.3744C319.31 49.4535 319.869 52.3326 320.989 55.0118C322.149 57.651 323.728 59.9703 325.728 61.9697C327.727 63.9291 330.066 65.4686 332.746 66.5883Z" fill="#777"/>
<path d="M6.27226 10.1769C0.966797 16.9233 0.966797 26.7978 0.966797 46.5468C0.966797 66.2957 0.966797 76.1702 6.27226 82.9166C7.4898 84.4648 8.88746 85.8625 10.4357 87.08C11.0282 87.546 11.6449 87.9711 12.2903 88.3588L38.4058 30.7012C39.5411 28.1946 42.4165 26.9867 45.0013 27.9303L61.5969 33.989C63.1645 34.5613 64.3676 35.8436 64.839 37.4445L80.0375 89.0621C81.1622 88.5014 82.2014 87.846 83.1754 87.08C84.7236 85.8625 86.1213 84.4648 87.3388 82.9166C92.6443 76.1702 92.6443 66.2957 92.6443 46.5468C92.6443 26.7978 92.6443 16.9233 87.3388 10.1769C86.1213 8.62867 84.7236 7.23101 83.1754 6.01347C76.429 0.708008 66.5545 0.708008 46.8055 0.708008C27.0566 0.708008 17.1821 0.708008 10.4357 6.01347C8.88746 7.23101 7.4898 8.62867 6.27226 10.1769Z" fill="#777"/>
</svg>
