<svg width="307" height="61" viewBox="0 0 307 61" fill="none" xmlns="http://www.w3.org/2000/svg">
<path d="M7.55292 7.29158C11.7279 3.30553 17.397 0.978857 23.1428 0.689499C25.1093 0.689499 27.0816 0.70131 29.0481 0.683594C28.9477 2.79177 29.0481 4.90586 28.989 7.01403C28.7115 11.7264 26.9694 16.3325 24.0345 20.0292C20.2197 25.0015 14.3853 28.3379 8.19069 29.2001C5.48608 29.6371 2.74013 29.3595 0.0178071 29.4363C0.0650492 27.1155 -0.0825823 24.7889 0.100481 22.474C0.631954 16.7341 3.34247 11.2363 7.55292 7.29158Z" fill="#777"/>
<path d="M30.8691 0.683594C32.9773 0.707215 35.0855 0.671783 37.1996 0.695404C42.4612 1.06744 47.6519 3.08703 51.6143 6.58885C55.9842 10.3387 58.9782 15.7007 59.7459 21.4288C60.0825 24.0861 59.8699 26.773 59.9998 29.4422C58.1573 29.4363 56.3208 29.4304 54.4784 29.4422C49.949 29.3182 45.4965 27.8537 41.7053 25.3853C39.9573 24.1334 38.1621 22.8638 36.8512 21.1276C33.9753 17.9151 32.0207 13.8819 31.2825 9.63006C30.7274 6.67743 30.9518 3.66575 30.8691 0.683594Z" fill="#777"/>
<path d="M0.0218289 31.1309C1.8938 31.2372 3.77167 31.0423 5.63773 31.249C13.6275 31.4202 21.3812 35.9082 25.5207 42.7406C27.8947 46.5672 29.1702 51.1024 29.0049 55.6082C28.9989 57.0845 29.0226 58.5549 28.9812 60.0253C26.0168 59.9367 23.0228 60.1788 20.0879 59.606C13.5685 58.5076 7.57466 54.6279 3.96654 49.0888C1.23241 45.0614 -0.131708 40.1423 0.0100184 35.2823C0.0100184 33.8945 0.0100184 32.5127 0.0218289 31.1309Z" fill="#777"/>
<path d="M50.0221 31.7566C53.2346 31.042 56.5475 31.1601 59.8131 31.1601L59.9548 31.3018C59.8839 34.3903 60.126 37.5142 59.506 40.5672C58.2009 47.4173 53.6657 53.5352 47.5656 56.8953C43.7685 59.0093 39.4104 60.0487 35.07 60.0014C33.6823 60.0073 32.2886 59.9778 30.9009 60.0191C30.9009 57.4622 30.7946 54.8934 31.084 52.3482C31.7572 46.189 35.0877 40.455 39.8769 36.5812C42.8413 34.2427 46.3254 32.5479 50.0221 31.7566Z" fill="#777"/>
<path d="M84.1973 48.5878C84.1973 49.6274 83.8375 50.5071 83.1177 51.2268C82.438 51.9065 81.5783 52.2464 80.5387 52.2464C79.5391 52.2464 78.6994 51.9065 78.0196 51.2268C77.3399 50.5071 77 49.6274 77 48.5878V11.5214C77 10.4818 77.3399 9.62214 78.0196 8.94239C78.7394 8.22266 79.619 7.86279 80.6587 7.86279C81.6983 7.86279 82.538 8.22266 83.1777 8.94239C83.8575 9.62214 84.1973 10.4818 84.1973 11.5214V48.5878Z" fill="#777"/>
<path d="M113.086 20.1583C114.125 20.1583 114.985 20.5181 115.665 21.2379C116.344 21.9176 116.684 22.7773 116.684 23.8169V39.0513C116.684 43.2897 115.505 46.6485 113.146 49.1276C110.786 51.6067 107.388 52.8462 102.949 52.8462C98.511 52.8462 95.1122 51.6067 92.7531 49.1276C90.434 46.6485 89.2744 43.2897 89.2744 39.0513V23.8169C89.2744 22.7773 89.6143 21.9176 90.294 21.2379C90.9738 20.5181 91.8334 20.1583 92.8731 20.1583C93.9127 20.1583 94.7724 20.5181 95.4521 21.2379C96.1318 21.9176 96.4717 22.7773 96.4717 23.8169V39.0513C96.4717 41.4904 97.0115 43.3097 98.0911 44.5093C99.1707 45.6688 100.79 46.2486 102.949 46.2486C105.149 46.2486 106.788 45.6688 107.868 44.5093C108.947 43.3097 109.487 41.4904 109.487 39.0513V23.8169C109.487 22.7773 109.827 21.9176 110.507 21.2379C111.186 20.5181 112.046 20.1583 113.086 20.1583Z" fill="#777"/>
<path d="M138.331 19.5585C141.53 19.5585 143.889 20.3382 145.409 21.8976C146.928 23.4171 147.928 25.3963 148.407 27.8354L147.388 27.2956L147.868 26.336C148.347 25.4163 149.087 24.4367 150.087 23.3971C151.086 22.3175 152.286 21.4178 153.685 20.6981C155.125 19.9383 156.724 19.5585 158.484 19.5585C161.363 19.5585 163.542 20.1782 165.021 21.4178C166.541 22.6573 167.58 24.3167 168.14 26.396C168.7 28.4352 168.98 30.7144 168.98 33.2334V48.5878C168.98 49.6274 168.64 50.5071 167.96 51.2268C167.28 51.9065 166.421 52.2464 165.381 52.2464C164.342 52.2464 163.482 51.9065 162.802 51.2268C162.122 50.5071 161.782 49.6274 161.782 48.5878V33.2334C161.782 31.9139 161.623 30.7344 161.303 29.6947C160.983 28.6151 160.403 27.7555 159.563 27.1157C158.724 26.4759 157.524 26.156 155.965 26.156C154.445 26.156 153.146 26.4759 152.066 27.1157C150.986 27.7555 150.167 28.6151 149.607 29.6947C149.087 30.7344 148.827 31.9139 148.827 33.2334V48.5878C148.827 49.6274 148.487 50.5071 147.808 51.2268C147.128 51.9065 146.268 52.2464 145.229 52.2464C144.189 52.2464 143.329 51.9065 142.65 51.2268C141.97 50.5071 141.63 49.6274 141.63 48.5878V33.2334C141.63 31.9139 141.47 30.7344 141.15 29.6947C140.83 28.6151 140.25 27.7555 139.411 27.1157C138.571 26.4759 137.371 26.156 135.812 26.156C134.293 26.156 132.993 26.4759 131.913 27.1157C130.834 27.7555 130.014 28.6151 129.454 29.6947C128.935 30.7344 128.675 31.9139 128.675 33.2334V48.5878C128.675 49.6274 128.335 50.5071 127.655 51.2268C126.975 51.9065 126.116 52.2464 125.076 52.2464C124.036 52.2464 123.177 51.9065 122.497 51.2268C121.817 50.5071 121.477 49.6274 121.477 48.5878V23.8169C121.477 22.7773 121.817 21.9176 122.497 21.2379C123.177 20.5181 124.036 20.1583 125.076 20.1583C126.116 20.1583 126.975 20.5181 127.655 21.2379C128.335 21.9176 128.675 22.7773 128.675 23.8169V26.396L127.775 26.216C128.135 25.5363 128.635 24.8165 129.274 24.0568C129.914 23.2571 130.694 22.5174 131.614 21.8376C132.533 21.1579 133.553 20.6181 134.672 20.2182C135.792 19.7784 137.012 19.5585 138.331 19.5585Z" fill="#777"/>
<path d="M180.548 48.5878C180.548 49.6274 180.208 50.5071 179.528 51.2268C178.849 51.9065 177.989 52.2464 176.949 52.2464C175.91 52.2464 175.05 51.9065 174.37 51.2268C173.691 50.5071 173.351 49.6274 173.351 48.5878V23.8169C173.351 22.7773 173.691 21.9176 174.37 21.2379C175.05 20.5181 175.91 20.1583 176.949 20.1583C177.989 20.1583 178.849 20.5181 179.528 21.2379C180.208 21.9176 180.548 22.7773 180.548 23.8169V48.5878ZM176.889 16.2597C175.53 16.2597 174.57 16.0398 174.01 15.5999C173.451 15.1601 173.171 14.3804 173.171 13.2608V12.1212C173.171 10.9616 173.471 10.1819 174.07 9.78209C174.71 9.34225 175.67 9.12233 176.949 9.12233C178.349 9.12233 179.329 9.34225 179.888 9.78209C180.448 10.2219 180.728 11.0016 180.728 12.1212V13.2608C180.728 14.4204 180.428 15.2201 179.828 15.6599C179.229 16.0598 178.249 16.2597 176.889 16.2597Z" fill="#777"/>
<path d="M202.1 19.5585C205.059 19.5585 207.298 20.1782 208.817 21.4178C210.377 22.6573 211.436 24.3167 211.996 26.396C212.596 28.4352 212.896 30.7144 212.896 33.2334V48.5878C212.896 49.6274 212.556 50.5071 211.876 51.2268C211.196 51.9065 210.337 52.2464 209.297 52.2464C208.258 52.2464 207.398 51.9065 206.718 51.2268C206.038 50.5071 205.698 49.6274 205.698 48.5878V33.2334C205.698 31.9139 205.519 30.7344 205.159 29.6947C204.839 28.6151 204.239 27.7555 203.359 27.1157C202.48 26.4759 201.22 26.156 199.581 26.156C197.981 26.156 196.622 26.4759 195.502 27.1157C194.423 27.7555 193.583 28.6151 192.983 29.6947C192.423 30.7344 192.143 31.9139 192.143 33.2334V48.5878C192.143 49.6274 191.804 50.5071 191.124 51.2268C190.444 51.9065 189.584 52.2464 188.545 52.2464C187.505 52.2464 186.645 51.9065 185.966 51.2268C185.286 50.5071 184.946 49.6274 184.946 48.5878V23.8169C184.946 22.7773 185.286 21.9176 185.966 21.2379C186.645 20.5181 187.505 20.1583 188.545 20.1583C189.584 20.1583 190.444 20.5181 191.124 21.2379C191.804 21.9176 192.143 22.7773 192.143 23.8169V26.396L191.244 26.216C191.604 25.5363 192.123 24.8165 192.803 24.0568C193.483 23.2571 194.283 22.5174 195.202 21.8376C196.122 21.1579 197.162 20.6181 198.321 20.2182C199.481 19.7784 200.74 19.5585 202.1 19.5585Z" fill="#777"/>
<path d="M248.505 36.2323C248.505 39.5111 247.765 42.4101 246.286 44.9291C244.846 47.4082 242.887 49.3475 240.408 50.747C237.969 52.1465 235.23 52.8462 232.191 52.8462C229.152 52.8462 226.393 52.1465 223.914 50.747C221.475 49.3475 219.516 47.4082 218.036 44.9291C216.597 42.4101 215.877 39.5111 215.877 36.2323C215.877 32.9535 216.597 30.0746 218.036 27.5955C219.516 25.0764 221.475 23.1172 223.914 21.7177C226.393 20.2782 229.152 19.5585 232.191 19.5585C235.23 19.5585 237.969 20.2782 240.408 21.7177C242.887 23.1172 244.846 25.0764 246.286 27.5955C247.765 30.0746 248.505 32.9535 248.505 36.2323ZM241.308 36.2323C241.308 34.1931 240.888 32.4337 240.048 30.9543C239.248 29.4348 238.149 28.2553 236.749 27.4156C235.39 26.5759 233.87 26.156 232.191 26.156C230.512 26.156 228.972 26.5759 227.573 27.4156C226.213 28.2553 225.113 29.4348 224.274 30.9543C223.474 32.4337 223.074 34.1931 223.074 36.2323C223.074 38.2316 223.474 39.9909 224.274 41.5104C225.113 42.9898 226.213 44.1494 227.573 44.9891C228.972 45.8288 230.512 46.2486 232.191 46.2486C233.87 46.2486 235.39 45.8288 236.749 44.9891C238.149 44.1494 239.248 42.9898 240.048 41.5104C240.888 39.9909 241.308 38.2316 241.308 36.2323Z" fill="#777"/>
<path d="M275.33 20.1583C276.37 20.1583 277.23 20.5181 277.91 21.2379C278.589 21.9176 278.929 22.7773 278.929 23.8169V39.0513C278.929 43.2897 277.75 46.6485 275.39 49.1276C273.031 51.6067 269.633 52.8462 265.194 52.8462C260.756 52.8462 257.357 51.6067 254.998 49.1276C252.679 46.6485 251.519 43.2897 251.519 39.0513V23.8169C251.519 22.7773 251.859 21.9176 252.539 21.2379C253.219 20.5181 254.078 20.1583 255.118 20.1583C256.158 20.1583 257.017 20.5181 257.697 21.2379C258.377 21.9176 258.717 22.7773 258.717 23.8169V39.0513C258.717 41.4904 259.256 43.3097 260.336 44.5093C261.416 45.6688 263.035 46.2486 265.194 46.2486C267.393 46.2486 269.033 45.6688 270.112 44.5093C271.192 43.3097 271.732 41.4904 271.732 39.0513V23.8169C271.732 22.7773 272.072 21.9176 272.751 21.2379C273.431 20.5181 274.291 20.1583 275.33 20.1583Z" fill="#777"/>
<path d="M281.863 47.2683C281.463 46.7085 281.283 45.9887 281.323 45.1091C281.363 44.2294 281.883 43.4697 282.883 42.8299C283.522 42.43 284.202 42.2701 284.922 42.3501C285.641 42.3901 286.341 42.7499 287.021 43.4297C288.181 44.5892 289.4 45.4889 290.68 46.1287C291.959 46.7684 293.559 47.0883 295.478 47.0883C296.078 47.0483 296.737 46.9684 297.457 46.8484C298.177 46.6885 298.797 46.3686 299.316 45.8888C299.876 45.369 300.156 44.5892 300.156 43.5496C300.156 42.67 299.856 41.9702 299.256 41.4504C298.657 40.9306 297.857 40.4908 296.857 40.1309C295.898 39.771 294.818 39.4312 293.619 39.1113C292.379 38.7514 291.099 38.3515 289.78 37.9117C288.5 37.4719 287.321 36.9121 286.241 36.2323C285.162 35.5126 284.282 34.5729 283.602 33.4134C282.923 32.2538 282.583 30.7943 282.583 29.035C282.583 27.0357 283.142 25.3363 284.262 23.9369C285.382 22.5374 286.821 21.4578 288.58 20.6981C290.38 19.9383 292.259 19.5585 294.218 19.5585C295.458 19.5585 296.757 19.7184 298.117 20.0383C299.476 20.3182 300.776 20.798 302.015 21.4778C303.255 22.1175 304.295 22.9772 305.134 24.0568C305.574 24.6566 305.834 25.3763 305.914 26.216C305.994 27.0557 305.614 27.8154 304.774 28.4952C304.175 28.975 303.475 29.1949 302.675 29.1549C301.876 29.075 301.216 28.7951 300.696 28.3152C300.016 27.4356 299.097 26.7358 297.937 26.216C296.817 25.6962 295.518 25.4363 294.038 25.4363C293.439 25.4363 292.779 25.5163 292.059 25.6762C291.379 25.7962 290.78 26.0961 290.26 26.5759C289.74 27.0157 289.48 27.7355 289.48 28.7351C289.48 29.6548 289.78 30.3945 290.38 30.9543C290.98 31.4741 291.779 31.9139 292.779 32.2738C293.818 32.5937 294.918 32.9136 296.078 33.2334C297.277 33.5533 298.497 33.9332 299.736 34.373C300.976 34.8129 302.115 35.3926 303.155 36.1124C304.195 36.8321 305.034 37.7718 305.674 38.9313C306.314 40.0509 306.634 41.4904 306.634 43.2497C306.634 45.289 306.034 47.0284 304.834 48.4678C303.635 49.9073 302.135 51.0069 300.336 51.7666C298.537 52.4863 296.697 52.8462 294.818 52.8462C292.459 52.8462 290.1 52.4464 287.741 51.6466C285.382 50.807 283.422 49.3475 281.863 47.2683Z" fill="#777"/>
</svg>
