<svg width="392" height="91" viewBox="0 0 392 91" fill="none" xmlns="http://www.w3.org/2000/svg">
<path d="M116.503 24.1182C120.222 24.1182 123.441 24.7379 126.16 25.9775C128.919 27.217 131.038 28.9764 132.517 31.2555C133.997 33.5347 134.737 36.2337 134.737 39.3525C134.737 42.4314 133.997 45.1304 132.517 47.4496C131.038 49.7287 128.919 51.4881 126.16 52.7276C123.441 53.9272 120.222 54.527 116.503 54.527H108.046V66.1027H98.3301V24.1182H116.503ZM115.964 46.6099C118.882 46.6099 121.102 45.9901 122.621 44.7506C124.141 43.471 124.9 41.6717 124.9 39.3525C124.9 36.9934 124.141 35.1941 122.621 33.9545C121.102 32.675 118.882 32.0352 115.964 32.0352H108.046V46.6099H115.964Z" fill="#777"/>
<path d="M146.952 38.093C148.071 36.5336 149.571 35.354 151.45 34.5543C153.369 33.7546 155.568 33.3548 158.047 33.3548V41.9916C157.008 41.9116 156.308 41.8716 155.948 41.8716C153.269 41.8716 151.17 42.6313 149.651 44.1508C148.131 45.6302 147.371 47.8694 147.371 50.8683V66.1027H138.015V33.8346H146.952V38.093Z" fill="#777"/>
<path d="M175.673 66.5825C172.275 66.5825 169.216 65.8828 166.497 64.4833C163.818 63.0438 161.719 61.0645 160.199 58.5455C158.68 56.0264 157.92 53.1674 157.92 49.9686C157.92 46.7698 158.68 43.9109 160.199 41.3918C161.719 38.8727 163.818 36.9134 166.497 35.514C169.216 34.0745 172.275 33.3548 175.673 33.3548C179.072 33.3548 182.111 34.0745 184.79 35.514C187.469 36.9134 189.568 38.8727 191.088 41.3918C192.607 43.9109 193.367 46.7698 193.367 49.9686C193.367 53.1674 192.607 56.0264 191.088 58.5455C189.568 61.0645 187.469 63.0438 184.79 64.4833C182.111 65.8828 179.072 66.5825 175.673 66.5825ZM175.673 58.9053C178.073 58.9053 180.032 58.1056 181.551 56.5062C183.111 54.8668 183.89 52.6876 183.89 49.9686C183.89 47.2496 183.111 45.0904 181.551 43.491C180.032 41.8516 178.073 41.0319 175.673 41.0319C173.274 41.0319 171.295 41.8516 169.736 43.491C168.176 45.0904 167.396 47.2496 167.396 49.9686C167.396 52.6876 168.176 54.8668 169.736 56.5062C171.295 58.1056 173.274 58.9053 175.673 58.9053Z" fill="#777"/>
<path d="M235.788 24.1182V66.1027H227.811L206.878 40.6121V66.1027H197.282V24.1182H205.319L226.191 49.6088V24.1182H235.788Z" fill="#777"/>
<path d="M255.078 33.3548C260.076 33.3548 263.914 34.5543 266.593 36.9534C269.272 39.3126 270.612 42.8912 270.612 47.6895V66.1027H261.855V62.0842C260.096 65.0831 256.817 66.5825 252.019 66.5825C249.54 66.5825 247.38 66.1627 245.541 65.323C243.742 64.4833 242.362 63.3237 241.403 61.8443C240.443 60.3648 239.963 58.6854 239.963 56.8061C239.963 53.8072 241.083 51.4481 243.322 49.7287C245.601 48.0094 249.1 47.1497 253.818 47.1497H261.255C261.255 45.1104 260.636 43.551 259.396 42.4714C258.156 41.3518 256.297 40.792 253.818 40.792C252.099 40.792 250.399 41.0719 248.72 41.6317C247.081 42.1515 245.681 42.8713 244.521 43.7909L241.163 37.2533C242.922 36.0138 245.021 35.0541 247.46 34.3744C249.939 33.6946 252.479 33.3548 255.078 33.3548ZM254.358 60.2848C255.957 60.2848 257.377 59.925 258.616 59.2052C259.856 58.4455 260.735 57.3459 261.255 55.9064V52.6077H254.838C250.999 52.6077 249.08 53.8672 249.08 56.3863C249.08 57.5858 249.54 58.5455 250.459 59.2652C251.419 59.945 252.718 60.2848 254.358 60.2848Z" fill="#777"/>
<path d="M296.893 64.5433C295.974 65.223 294.834 65.7428 293.475 66.1027C292.155 66.4226 290.756 66.5825 289.276 66.5825C285.438 66.5825 282.459 65.6029 280.34 63.6436C278.26 61.6843 277.221 58.8054 277.221 55.0068V41.7517H272.243V34.5543H277.221V26.6972H286.577V34.5543H294.614V41.7517H286.577V54.8868C286.577 56.2463 286.917 57.3059 287.597 58.0656C288.317 58.7854 289.316 59.1452 290.596 59.1452C292.075 59.1452 293.335 58.7454 294.374 57.9457L296.893 64.5433Z" fill="#777"/>
<path d="M331.655 33.8346V66.1027H322.778V62.2641C321.539 63.6636 320.059 64.7432 318.34 65.5029C316.62 66.2226 314.761 66.5825 312.762 66.5825C308.523 66.5825 305.165 65.363 302.685 62.9239C300.206 60.4847 298.967 56.8661 298.967 52.0679V33.8346H308.323V50.6884C308.323 55.8864 310.503 58.4855 314.861 58.4855C317.1 58.4855 318.9 57.7658 320.259 56.3263C321.618 54.8468 322.298 52.6676 322.298 49.7887V33.8346H331.655Z" fill="#777"/>
<path d="M346.261 38.093C347.38 36.5336 348.88 35.354 350.759 34.5543C352.678 33.7546 354.878 33.3548 357.357 33.3548V41.9916C356.317 41.9116 355.617 41.8716 355.258 41.8716C352.578 41.8716 350.479 42.6313 348.96 44.1508C347.44 45.6302 346.681 47.8694 346.681 50.8683V66.1027H337.324V33.8346H346.261V38.093Z" fill="#777"/>
<path d="M391.237 50.0886C391.237 50.2085 391.177 51.0482 391.057 52.6077H366.646C367.086 54.6069 368.125 56.1863 369.765 57.3459C371.404 58.5055 373.443 59.0853 375.882 59.0853C377.562 59.0853 379.041 58.8454 380.321 58.3655C381.64 57.8457 382.86 57.046 383.979 55.9664L388.958 61.3644C385.919 64.8432 381.48 66.5825 375.642 66.5825C372.004 66.5825 368.785 65.8828 365.986 64.4833C363.187 63.0438 361.028 61.0645 359.508 58.5455C357.989 56.0264 357.229 53.1674 357.229 49.9686C357.229 46.8098 357.969 43.9708 359.448 41.4518C360.968 38.8927 363.027 36.9134 365.626 35.514C368.265 34.0745 371.204 33.3548 374.443 33.3548C377.602 33.3548 380.461 34.0345 383.02 35.394C385.579 36.7535 387.578 38.7128 389.018 41.2718C390.497 43.7909 391.237 46.7298 391.237 50.0886ZM374.503 40.4321C372.384 40.4321 370.604 41.0319 369.165 42.2315C367.725 43.431 366.846 45.0704 366.526 47.1497H382.42C382.1 45.1104 381.22 43.491 379.781 42.2915C378.341 41.0519 376.582 40.4321 374.503 40.4321Z" fill="#777"/>
<path fill-rule="evenodd" clip-rule="evenodd" d="M45.045 0.736671C43.6194 -0.0880049 41.8617 -0.0880049 40.4361 0.736671C30.3102 6.59421 23.4807 17.5537 23.4807 30.1137C23.4807 31.9039 23.6195 33.6615 23.8867 35.3764C16.9161 33.0092 9.36855 33.8706 3.20385 37.4229C1.77685 38.2452 0.898038 39.7674 0.899416 41.4143C0.906681 50.1029 5.42029 58.5711 13.5039 63.2381C17.4696 65.5278 21.7981 66.6159 26.0677 66.6181C25.4181 68.4587 25.0647 70.439 25.0647 72.502C25.0647 82.2637 32.9782 90.1772 42.7399 90.1772C52.5017 90.1772 60.4151 82.2637 60.4151 72.502C60.4151 70.4345 60.0602 68.4499 59.4078 66.6059C63.4227 66.4792 67.4667 65.3887 71.191 63.2385C79.2746 58.5714 83.7882 50.1033 83.7954 41.4147C83.7968 39.7677 82.918 38.2456 81.491 37.4233C75.5691 34.0109 68.3713 33.0816 61.6345 35.112C61.8755 33.481 62.0004 31.812 62.0004 30.1137C62.0004 17.5537 55.1709 6.59421 45.045 0.736671ZM32.6851 30.1137C32.6851 21.9576 36.6343 14.7195 42.7405 10.2141C48.8468 14.7195 52.796 21.9576 52.796 30.1137C52.796 38.2699 48.8468 45.508 42.7405 50.0134C36.6343 45.508 32.6851 38.2699 32.6851 30.1137ZM60.891 45.3984C65.1411 42.9446 70.0519 42.6592 74.3418 44.2118C73.5415 48.7033 70.8389 52.8135 66.5888 55.2673C62.3387 57.7211 57.4279 58.0065 53.138 56.4539C53.9383 51.9624 56.6409 47.8522 60.891 45.3984ZM10.3531 44.2115C14.6429 42.6588 19.5537 42.9442 23.8038 45.398C28.054 47.8519 30.7566 51.962 31.5569 56.4535C27.267 58.0062 22.3562 57.7207 18.1061 55.2669C13.856 52.8131 11.1533 48.703 10.3531 44.2115ZM34.2691 72.502C34.2691 67.8237 38.0616 64.0312 42.7399 64.0312C47.4182 64.0312 51.2108 67.8237 51.2108 72.502C51.2108 77.1803 47.4182 80.9728 42.7399 80.9728C38.0616 80.9728 34.2691 77.1803 34.2691 72.502Z" fill="#777"/>
</svg>
